<mxfile host="app.diagrams.net" agent="Mozilla/5.0 (Windows NT 10.0; Win64; x64) AppleWebKit/537.36 (KHTML, like Gecko) Chrome/130.0.0.0 Safari/537.36" version="24.7.7">
  <diagram name="Page-1" id="qHjQ3Kp8evVH0LIZxgPy">
    <mxGraphModel dx="1235" dy="614" grid="1" gridSize="10" guides="1" tooltips="1" connect="1" arrows="1" fold="1" page="1" pageScale="1" pageWidth="850" pageHeight="1100" math="0" shadow="0">
      <root>
        <mxCell id="0" />
        <mxCell id="1" parent="0" />
        <mxCell id="X1u20ZAiwVJomww_9J4Q-1" value="" style="rounded=1;whiteSpace=wrap;html=1;sketch=1;hachureGap=4;jiggle=2;curveFitting=1;fontFamily=Architects Daughter;fontSource=https%3A%2F%2Ffonts.googleapis.com%2Fcss%3Ffamily%3DArchitects%2BDaughter;" vertex="1" parent="1">
          <mxGeometry x="40" y="120" width="750" height="330" as="geometry" />
        </mxCell>
        <mxCell id="X1u20ZAiwVJomww_9J4Q-2" value="&lt;font style=&quot;font-size: 30px;&quot;&gt;K8N&lt;/font&gt;" style="text;html=1;align=center;verticalAlign=middle;whiteSpace=wrap;rounded=0;fontFamily=Architects Daughter;fontSource=https%3A%2F%2Ffonts.googleapis.com%2Fcss%3Ffamily%3DArchitects%2BDaughter;" vertex="1" parent="1">
          <mxGeometry x="260" y="30" width="310" height="90" as="geometry" />
        </mxCell>
        <mxCell id="X1u20ZAiwVJomww_9J4Q-4" value="&lt;p style=&quot;line-height: 140%;&quot;&gt;&lt;font style=&quot;font-size: 20px;&quot;&gt;NameSpace - devops&lt;/font&gt;&lt;/p&gt;" style="text;html=1;align=center;verticalAlign=middle;whiteSpace=wrap;rounded=0;fontFamily=Architects Daughter;fontSource=https%3A%2F%2Ffonts.googleapis.com%2Fcss%3Ffamily%3DArchitects%2BDaughter;" vertex="1" parent="1">
          <mxGeometry x="280" y="120" width="270" height="60" as="geometry" />
        </mxCell>
        <mxCell id="X1u20ZAiwVJomww_9J4Q-6" value="&lt;b&gt;&lt;font style=&quot;font-size: 21px;&quot;&gt;Pod: jenkins&lt;/font&gt;&lt;/b&gt;" style="text;html=1;align=center;verticalAlign=middle;whiteSpace=wrap;rounded=0;fontFamily=Architects Daughter;fontSource=https%3A%2F%2Ffonts.googleapis.com%2Fcss%3Ffamily%3DArchitects%2BDaughter;" vertex="1" parent="1">
          <mxGeometry x="137.5" y="180" width="175" height="40" as="geometry" />
        </mxCell>
        <mxCell id="X1u20ZAiwVJomww_9J4Q-8" value="" style="rounded=1;whiteSpace=wrap;html=1;sketch=1;hachureGap=4;jiggle=2;curveFitting=1;fontFamily=Architects Daughter;fontSource=https%3A%2F%2Ffonts.googleapis.com%2Fcss%3Ffamily%3DArchitects%2BDaughter;" vertex="1" parent="1">
          <mxGeometry x="40" y="490" width="750" height="365" as="geometry" />
        </mxCell>
        <mxCell id="X1u20ZAiwVJomww_9J4Q-12" value="&lt;p style=&quot;line-height: 140%;&quot;&gt;&lt;font style=&quot;font-size: 20px;&quot;&gt;NameSpace - web&lt;/font&gt;&lt;/p&gt;" style="text;html=1;align=center;verticalAlign=middle;whiteSpace=wrap;rounded=0;fontFamily=Architects Daughter;fontSource=https%3A%2F%2Ffonts.googleapis.com%2Fcss%3Ffamily%3DArchitects%2BDaughter;" vertex="1" parent="1">
          <mxGeometry x="280" y="500" width="270" height="60" as="geometry" />
        </mxCell>
        <mxCell id="X1u20ZAiwVJomww_9J4Q-14" value="&lt;blockquote style=&quot;margin: 0px 0px 0px 40px; border: none; padding: 0px; font-size: 15px;&quot;&gt;- Service: jenkins-service (NodePort: 8080)&lt;div&gt;&lt;span style=&quot;background-color: initial;&quot;&gt;- PVC: jenkins-pvc&lt;/span&gt;&lt;/div&gt;&lt;div&gt;&lt;span style=&quot;background-color: initial;&quot;&gt;- PersistentVolume: jenkins-pv (Size: 8Gi)&lt;/span&gt;&lt;/div&gt;&lt;div&gt;&lt;div&gt;&lt;div&gt;- CI/CD Pipeline&lt;b&gt;:&lt;/b&gt;&lt;/div&gt;&lt;/div&gt;&lt;/div&gt;&lt;div&gt;&lt;div&gt;&lt;div&gt;&amp;nbsp; * Clone code from GitHub&lt;/div&gt;&lt;/div&gt;&lt;/div&gt;&lt;div&gt;&lt;div&gt;&amp;nbsp; * Build .NET Core application&lt;/div&gt;&lt;div&gt;&lt;span style=&quot;background-color: initial;&quot;&gt;&amp;nbsp; * Dockerize application&lt;/span&gt;&lt;/div&gt;&lt;div&gt;&lt;span style=&quot;background-color: initial;&quot;&gt;&amp;nbsp; * Deploy to web namespace&lt;/span&gt;&lt;/div&gt;&lt;/div&gt;&lt;/blockquote&gt;" style="rounded=0;whiteSpace=wrap;html=1;sketch=1;hachureGap=4;jiggle=2;curveFitting=1;fontFamily=Architects Daughter;fontSource=https%3A%2F%2Ffonts.googleapis.com%2Fcss%3Ffamily%3DArchitects%2BDaughter;align=left;" vertex="1" parent="1">
          <mxGeometry x="70" y="230" width="380" height="180" as="geometry" />
        </mxCell>
        <mxCell id="X1u20ZAiwVJomww_9J4Q-15" value="&lt;font size=&quot;1&quot; style=&quot;&quot;&gt;&lt;b style=&quot;font-size: 21px;&quot;&gt;Pod: web-app&lt;/b&gt;&lt;/font&gt;" style="text;html=1;align=center;verticalAlign=middle;whiteSpace=wrap;rounded=0;fontFamily=Architects Daughter;fontSource=https%3A%2F%2Ffonts.googleapis.com%2Fcss%3Ffamily%3DArchitects%2BDaughter;" vertex="1" parent="1">
          <mxGeometry x="157.5" y="580" width="175" height="40" as="geometry" />
        </mxCell>
        <mxCell id="X1u20ZAiwVJomww_9J4Q-16" value="&lt;blockquote style=&quot;margin: 0px 0px 0px 40px; border: none; padding: 0px; font-size: 15px;&quot;&gt;- Deployment: web-app-deployment&lt;div&gt;&amp;nbsp;&amp;nbsp;* Image: Built and pushed by Jenkins&lt;/div&gt;&lt;div&gt;&amp;nbsp;&amp;nbsp;* Replicas: 2&lt;/div&gt;&lt;div&gt;- Service: web-app-service (ClusterIP)&lt;/div&gt;&lt;div&gt;- Application: .NET Core Web API&lt;/div&gt;&lt;/blockquote&gt;" style="rounded=0;whiteSpace=wrap;html=1;sketch=1;hachureGap=4;jiggle=2;curveFitting=1;fontFamily=Architects Daughter;fontSource=https%3A%2F%2Ffonts.googleapis.com%2Fcss%3Ffamily%3DArchitects%2BDaughter;align=left;" vertex="1" parent="1">
          <mxGeometry x="90" y="630" width="380" height="180" as="geometry" />
        </mxCell>
      </root>
    </mxGraphModel>
  </diagram>
</mxfile>
